<svg xmlns="http://www.w3.org/2000/svg" width="24" height="24" viewBox="0 0 24 24" fill="currentColor"><path d="M12 0C5.372 0 0 5.373 0 12s5.372 12 12 12c6.627 0 12-5.373 12-12S18.627 0 12 0zm9.885 11.441c-2.575-.422-4.943-.445-7.103-.073-.244-.563-.497-1.125-.767-1.68 2.31-1 4.165-2.358 5.548-4.082 1.35 1.594 2.197 3.619 2.322 5.835zm-3.842-7.282c-1.205 1.554-2.868 2.783-4.986 3.68-1.016-1.861-2.178-3.676-3.488-5.438.779-.197 1.591-.314 2.431-.314 2.275 0 4.368.779 6.043 2.072zm-10.516-.993c1.331 1.742 2.511 3.538 3.537 5.381-2.43.715-5.331 1.082-8.684 1.105.692-2.835 2.601-5.193 5.147-6.486zM1.333 12c0-.076.008-.152.01-.228 3.767-.026 7.042-.45 9.865-1.322.345.766.672 1.532.971 2.3-4.799 1.515-7.355 4.584-8.87 8.48-1.25-1.816-1.976-4.016-1.976-6.43zm4.459 8.059c1.368-3.773 3.797-6.604 8.164-7.843.339 1.01.672 1.936.972 2.795-.316.137-.639.273-.958.411-2.838 1.233-5.565 3.278-7.161 6.608-1.591-1.198-1.017-1.971-1.017-1.971zm8.208 2.608c-.319-1.974-.76-3.706-1.316-5.213.299-.138.595-.269.896-.395 1.892-.693 3.78-.936 5.704-.92.037.283.06.57.06.863.001 2.278-.797 4.594-2.239 6.335-.747-.693-2.028-.843-3.105-.67zm2.425-7.435c-1.629-.007-3.232.209-4.863.818-.314-.825-.626-1.718-.95-2.682 2.056-.412 4.299-.401 6.751.03-.207.716-.474 1.355-.938 1.834z"/></svg>